<svg width="234" height="70" viewBox="0 0 234 70" fill="none" xmlns="http://www.w3.org/2000/svg">
<g clip-path="url(#clip0_7_1403)">
<path d="M215 48.3333H233.333V63.3333H215V48.3333Z" fill="white"/>
</g>
<path d="M45.4102 63.3334H5.41177V4.98374H45.4102V16.6618H17.0898V28.3399H36.2549V40.0179H17.0898V51.6553H45.4102V63.3334Z" fill="white"/>
<path d="M59.5199 22.4805C59.5199 20.0662 59.981 17.8011 60.9033 15.6852C61.8256 13.5694 63.0735 11.7247 64.6468 10.1514C66.2473 8.55091 68.1055 7.28952 70.2214 6.36721C72.3372 5.4449 74.6023 4.98374 77.0166 4.98374H103.791V16.6618H77.0166C76.2028 16.6618 75.4433 16.811 74.738 17.1094C74.0327 17.4078 73.4087 17.8283 72.8662 18.3708C72.3508 18.8862 71.9439 19.4966 71.6455 20.2018C71.3471 20.9071 71.1979 21.6667 71.1979 22.4805C71.1979 23.2943 71.3471 24.0674 71.6455 24.7998C71.9439 25.5051 72.3508 26.129 72.8662 26.6716C73.4087 27.187 74.0327 27.5939 74.738 27.8923C75.4433 28.1907 76.2028 28.3399 77.0166 28.3399H88.6947C91.1089 28.3399 93.374 28.801 95.4899 29.7233C97.6329 30.6185 99.4911 31.8663 101.064 33.4668C102.665 35.0402 103.913 36.8984 104.808 39.0414C105.73 41.1573 106.191 43.4223 106.191 45.8366C106.191 48.2509 105.73 50.516 104.808 52.6319C103.913 54.7478 102.665 56.6059 101.064 58.2064C99.4911 59.7798 97.6329 61.0276 95.4899 61.9499C93.374 62.8722 91.1089 63.3334 88.6947 63.3334H62.7751V51.6553H88.6947C89.5085 51.6553 90.268 51.5061 90.9733 51.2077C91.6786 50.9093 92.289 50.5024 92.8044 49.987C93.3469 49.4445 93.7674 48.8206 94.0658 48.1153C94.3642 47.41 94.5134 46.6504 94.5134 45.8366C94.5134 45.0228 94.3642 44.2633 94.0658 43.558C93.7674 42.8527 93.3469 42.2423 92.8044 41.7269C92.289 41.1844 91.6786 40.7639 90.9733 40.4655C90.268 40.1671 89.5085 40.0179 88.6947 40.0179H77.0166C74.6023 40.0179 72.3372 39.5568 70.2214 38.6345C68.1055 37.7122 66.2473 36.4643 64.6468 34.891C63.0735 33.2905 61.8256 31.4323 60.9033 29.3164C59.981 27.1734 59.5199 24.8948 59.5199 22.4805Z" fill="white"/>
<path d="M170.309 57.4333C167.597 59.7391 164.572 61.5159 161.235 62.7637C157.899 63.9844 154.427 64.5948 150.819 64.5948C148.052 64.5948 145.38 64.2285 142.803 63.4961C140.253 62.7908 137.866 61.7871 135.641 60.4851C133.417 59.1558 131.382 57.5825 129.538 55.765C127.693 53.9204 126.12 51.8859 124.818 49.6615C123.516 47.41 122.498 44.9957 121.766 42.4186C121.061 39.8416 120.708 37.1696 120.708 34.4027C120.708 31.6358 121.061 28.9773 121.766 26.4274C122.498 23.8775 123.516 21.4904 124.818 19.266C126.12 17.0145 127.693 14.9799 129.538 13.1625C131.382 11.3178 133.417 9.74449 135.641 8.4424C137.866 7.14032 140.253 6.13663 142.803 5.43134C145.38 4.69891 148.052 4.3327 150.819 4.3327C154.427 4.3327 157.899 4.95662 161.235 6.20445C164.572 7.42515 167.597 9.18839 170.309 11.4942L164.206 21.6667C162.443 19.8763 160.408 18.4793 158.102 17.4756C155.796 16.4448 153.369 15.9294 150.819 15.9294C148.269 15.9294 145.868 16.4177 143.617 17.3942C141.392 18.3708 139.439 19.7 137.757 21.3819C136.075 23.0366 134.746 24.9897 133.77 27.2412C132.793 29.4656 132.305 31.8528 132.305 34.4027C132.305 36.9797 132.793 39.394 133.77 41.6455C134.746 43.8971 136.075 45.8637 137.757 47.5456C139.439 49.2275 141.392 50.5567 143.617 51.5332C145.868 52.5098 148.269 52.9981 150.819 52.9981C152.284 52.9981 153.708 52.8218 155.091 52.4691C156.475 52.1165 157.79 51.6282 159.038 51.0043V34.4027H170.309V57.4333Z" fill="white"/>
<path d="M200.98 63.3334H189.302V4.98374H200.98V63.3334Z" fill="white"/>
<defs>
<clipPath id="clip0_7_1403">
<rect width="233.333" height="70" fill="white"/>
</clipPath>
</defs>
</svg>
